<?xml version="1.0" encoding="UTF-8" standalone="no"?>
<svg
   xmlns:dc="http://purl.org/dc/elements/1.1/"
   xmlns:cc="http://creativecommons.org/ns#"
   xmlns:rdf="http://www.w3.org/1999/02/22-rdf-syntax-ns#"
   xmlns:svg="http://www.w3.org/2000/svg"
   xmlns="http://www.w3.org/2000/svg"
   xmlns:sodipodi="http://sodipodi.sourceforge.net/DTD/sodipodi-0.dtd"
   xmlns:inkscape="http://www.inkscape.org/namespaces/inkscape"
   width="210mm"
   height="297mm"
   viewBox="0 0 210 297"
   version="1.1"
   id="svg8"
   inkscape:version="1.0.2 (e86c870879, 2021-01-15, custom)"
   sodipodi:docname="olibn.svg">
  <defs
     id="defs2" />
  <sodipodi:namedview
     id="base"
     pagecolor="#ffffff"
     bordercolor="#666666"
     borderopacity="1.0"
     inkscape:pageopacity="0.0"
     inkscape:pageshadow="2"
     inkscape:zoom="0.7"
     inkscape:cx="328.9936"
     inkscape:cy="488.54184"
     inkscape:document-units="mm"
     inkscape:current-layer="text12"
     inkscape:document-rotation="0"
     showgrid="false"
     inkscape:window-width="1600"
     inkscape:window-height="822"
     inkscape:window-x="-8"
     inkscape:window-y="-8"
     inkscape:window-maximized="1"
     inkscape:snap-bbox="true" />
  <metadata
     id="metadata5">
    <rdf:RDF>
      <cc:Work
         rdf:about="">
        <dc:format>image/svg+xml</dc:format>
        <dc:type
           rdf:resource="http://purl.org/dc/dcmitype/StillImage" />
        <dc:title></dc:title>
      </cc:Work>
    </rdf:RDF>
  </metadata>
  <g
     inkscape:label="Layer 1"
     inkscape:groupmode="layer"
     id="layer1">
    <g
       aria-label="Oliver Belfitt-Nash"
       id="text12"
       style="font-style:normal;font-weight:normal;font-size:25.4px;line-height:1.25;font-family:sans-serif;fill:#000000;fill-opacity:1;stroke:none;stroke-width:0.264583">
      <path
         id="text506"
         style="font-style:normal;font-variant:normal;font-weight:normal;font-stretch:normal;font-size:22.5778px;line-height:1.25;font-family:Garamond;-inkscape-font-specification:Garamond;fill:#000000;fill-opacity:1;stroke:none;stroke-width:0.264583"
         d="M 446.92969 587.48242 C 444.81857 587.48242 442.98524 587.80252 441.42969 588.44141 C 439.90191 589.05252 438.22005 590.13585 436.38672 591.69141 L 435.30469 592.89844 C 433.80469 594.64844 432.55469 596.98177 431.55469 599.89844 C 430.58246 602.78733 430.05404 605.88585 429.9707 609.19141 C 427.52626 609.38585 425.88802 609.48242 425.05469 609.48242 C 424.6658 609.95464 424.4707 610.57964 424.4707 611.35742 C 424.4707 611.80187 424.48394 612.39844 424.51172 613.14844 C 424.81727 613.23177 425.05404 613.28863 425.2207 613.31641 L 427.8457 613.31641 C 428.81793 613.37196 429.55469 613.39844 430.05469 613.39844 L 430.13672 614.19141 L 430.17969 622.19141 L 430.42969 629.35742 L 430.42969 629.73242 L 430.38672 630.27344 L 430.42969 630.77344 C 430.45747 631.21788 430.4707 631.56641 430.4707 631.81641 C 430.4707 632.12196 430.4158 633.5651 430.30469 636.14844 L 430.30469 637.06641 C 430.30469 637.62196 430.15126 638.05187 429.8457 638.35742 C 429.67904 638.55187 428.81728 638.87196 427.26172 639.31641 C 425.73394 639.73307 424.74913 640.05122 424.30469 640.27344 L 424.3457 642.64844 C 428.2346 642.5651 430.49783 642.48177 431.13672 642.39844 C 432.33116 642.28733 434.01302 642.23242 436.17969 642.23242 L 438.42969 642.39844 C 441.42969 642.59288 443.05469 642.69141 443.30469 642.69141 L 446.30469 642.69141 C 446.4158 642.13585 446.4707 641.70399 446.4707 641.39844 C 446.4707 641.20399 446.4158 640.77409 446.30469 640.10742 C 445.9158 639.94076 445.48394 639.84418 445.01172 639.81641 C 442.45616 639.53863 440.77626 638.99696 439.9707 638.19141 C 439.41515 637.66363 439.17839 636.1352 439.26172 633.60742 L 439.30469 630.02344 L 439.2207 625.56641 L 439.26172 619.44141 C 439.26172 618.85807 439.23524 617.77474 439.17969 616.19141 C 439.15191 615.77474 439.13672 615.46788 439.13672 615.27344 L 439.17969 613.23242 C 439.73524 613.12131 440.15191 613.06641 440.42969 613.06641 L 440.80469 613.06641 C 441.08247 613.09418 441.48394 613.10742 442.01172 613.10742 L 445.17969 613.06641 L 445.55469 613.06641 C 445.88802 613.06641 446.17969 612.99631 446.42969 612.85742 C 446.51302 612.3852 446.55469 612.0651 446.55469 611.89844 L 446.55469 610.77344 L 446.5957 609.98242 C 446.5957 609.7602 446.4158 609.48177 446.05469 609.14844 C 445.52691 609.0651 445.13672 609.02344 444.88672 609.02344 L 439.92969 609.14844 L 439.13672 609.10742 L 439.0957 607.89844 L 439.13672 603.31641 C 439.13672 599.5664 439.26172 597.06641 439.51172 595.81641 C 439.76172 594.5664 440.20681 593.60807 440.8457 592.94141 C 441.48459 592.27474 442.23459 591.94141 443.0957 591.94141 C 443.81793 591.94141 444.40126 592.10807 444.8457 592.44141 C 445.29015 592.80252 445.90191 593.64909 446.67969 594.98242 C 447.48524 596.28798 448.16515 597.14974 448.7207 597.56641 C 449.52626 598.12196 450.34635 598.39844 451.17969 598.39844 C 452.2908 598.39844 453.30404 597.94011 454.2207 597.02344 C 454.82122 596.40472 455.205 595.74688 455.41211 595.05664 C 455.68972 595.7565 456.11063 596.39914 456.67969 596.98242 C 457.81858 598.12131 459.05338 598.69141 460.38672 598.69141 C 461.35894 598.69141 462.30404 598.41298 463.2207 597.85742 C 464.16515 597.27409 464.84505 596.51085 465.26172 595.56641 C 465.70616 594.62196 465.92969 593.67687 465.92969 592.73242 C 465.92969 591.45464 465.38802 590.31641 464.30469 589.31641 C 463.22135 588.28863 461.85959 587.77344 460.2207 587.77344 C 458.69292 587.77344 457.44293 588.2602 456.4707 589.23242 C 455.75867 589.92411 455.3097 590.76619 455.11914 591.75586 C 455.0264 591.52929 454.92473 591.30016 454.80469 591.06641 C 454.30469 590.01085 453.37283 589.14909 452.01172 588.48242 C 450.67838 587.81575 448.98525 587.48242 446.92969 587.48242 z M 95.136719 587.56641 C 91.747826 587.56641 88.677737 587.92621 85.927734 588.64844 C 83.177732 589.34288 80.484595 590.50955 77.845703 592.14844 C 75.206812 593.75955 73.011721 595.60807 71.261719 597.69141 C 69.511717 599.77474 68.149958 602.0664 67.177734 604.56641 C 65.8444 608.03863 65.177734 611.49696 65.177734 614.94141 C 65.177734 615.10881 65.189409 615.26281 65.191406 615.42773 L 78.556641 614.79102 C 78.556536 614.73635 78.552734 614.70384 78.552734 614.64844 C 78.552734 610.73177 78.886067 607.41363 79.552734 604.69141 C 80.219402 601.9414 81.344399 599.41298 82.927734 597.10742 C 83.87218 595.74631 85.275606 594.50955 87.136719 593.39844 C 88.997832 592.25955 91.136065 591.69141 93.552734 591.69141 C 97.941628 591.69141 101.58181 592.88455 104.4707 595.27344 C 107.38737 597.66233 109.35894 601.13585 110.38672 605.69141 C 110.58116 606.60807 110.7194 607.17622 110.80273 607.39844 L 111.01172 608.19141 C 111.16234 610.06732 111.27519 611.74124 111.35156 613.23242 L 124.87695 612.58984 C 124.50447 608.08627 122.95618 603.75862 120.2207 599.60742 C 117.77626 595.91297 114.42774 592.98308 110.17773 590.81641 C 105.92773 588.64974 100.9145 587.56641 95.136719 587.56641 z M 143.4707 587.60742 L 142.30273 587.64844 C 141.05273 588.56511 139.24783 589.46853 136.88672 590.35742 C 134.52561 591.21853 132.24718 591.77344 130.05273 592.02344 C 129.99718 592.30122 129.9707 592.55122 129.9707 592.77344 C 129.9707 593.10677 130.01237 593.62196 130.0957 594.31641 C 130.67904 594.4553 131.30404 594.52344 131.9707 594.52344 C 133.08182 594.52344 134.12348 594.8151 135.0957 595.39844 C 135.45681 596.48177 135.63672 598.16363 135.63672 600.44141 L 135.63672 602.10742 L 135.76172 611.73242 L 135.76172 612.07227 L 144.76172 611.64453 L 144.76172 610.98242 L 144.7207 610.19141 L 144.7207 609.94141 C 144.74848 609.30252 144.76172 608.45399 144.76172 607.39844 C 144.76172 603.84288 144.69162 597.25956 144.55273 587.64844 C 144.08051 587.62066 143.7207 587.60742 143.4707 587.60742 z M 414.3457 587.60742 L 413.17969 587.64844 C 411.92969 588.56511 410.12283 589.46853 407.76172 590.35742 C 405.40061 591.21853 403.12413 591.77344 400.92969 592.02344 C 400.87413 592.30122 400.8457 592.55122 400.8457 592.77344 C 400.8457 593.10677 400.88737 593.62196 400.9707 594.31641 C 401.55404 594.4553 402.17904 594.52344 402.8457 594.52344 C 403.95682 594.52344 404.99848 594.8151 405.9707 595.39844 C 406.33181 596.48177 406.51172 598.16363 406.51172 600.44141 L 406.51172 602.10742 L 406.63672 611.73242 L 406.63672 620.14844 L 406.67969 622.94141 L 406.67969 634.69141 C 406.67969 636.91363 406.40126 638.3852 405.8457 639.10742 C 405.56793 639.46853 404.47136 639.7602 402.55469 639.98242 C 401.55469 640.09353 400.74783 640.35677 400.13672 640.77344 L 400.30469 642.69141 L 403.3457 642.69141 C 406.34571 642.44141 408.63737 642.31641 410.2207 642.31641 L 411.76172 642.35742 C 414.5395 642.35742 416.84635 642.42752 418.67969 642.56641 L 421.9707 642.73242 C 422.02626 642.23242 422.05469 641.84418 422.05469 641.56641 C 422.05469 641.20529 421.98459 640.73177 421.8457 640.14844 C 420.12348 639.92622 418.97005 639.78798 418.38672 639.73242 C 417.30338 639.64909 416.59505 639.42752 416.26172 639.06641 C 415.87283 638.56641 415.67969 637.71788 415.67969 636.52344 L 415.67969 635.52344 L 415.63672 629.44141 L 415.63672 610.98242 L 415.5957 610.19141 L 415.5957 609.94141 C 415.62348 609.30252 415.63672 608.45399 415.63672 607.39844 C 415.63672 603.84288 415.56858 597.25956 415.42969 587.64844 C 414.95746 587.62066 414.5957 587.60742 414.3457 587.60742 z M 716.42969 587.69141 C 716.06858 587.85807 715.67839 588.06641 715.26172 588.31641 C 712.90061 589.37196 710.94228 590.0651 709.38672 590.39844 C 708.74783 590.53733 708.08116 590.70399 707.38672 590.89844 L 703.88672 591.64844 C 703.83116 592.25955 703.80469 592.77474 703.80469 593.19141 L 703.80469 594.06641 C 706.11025 594.42752 707.56858 594.81575 708.17969 595.23242 C 708.81858 595.64909 709.22005 596.21918 709.38672 596.94141 C 709.52664 597.55705 709.6314 598.67879 709.70117 600.29492 L 718.64453 598.10938 L 718.67969 587.85742 L 716.42969 587.69141 z M 163.55273 587.77344 C 162.02496 587.77344 160.77496 588.2602 159.80273 589.23242 C 158.83051 590.17687 158.3457 591.39844 158.3457 592.89844 C 158.3457 594.48177 158.90061 595.84353 160.01172 596.98242 C 161.15061 598.12131 162.38737 598.69141 163.7207 598.69141 C 164.69293 598.69141 165.63607 598.41298 166.55273 597.85742 C 167.49718 597.27409 168.17904 596.51085 168.5957 595.56641 C 169.04015 594.62196 169.26172 593.67687 169.26172 592.73242 C 169.26172 591.45464 168.72005 590.31641 167.63672 589.31641 C 166.55338 588.28863 165.19162 587.77344 163.55273 587.77344 z M 330.76172 588.27344 C 330.42839 588.27344 330.09505 588.28863 329.76172 588.31641 L 328.13672 588.35742 L 314.51172 588.81641 L 305.17969 589.02344 L 305.30469 591.98242 C 307.49913 592.2602 308.85894 592.41363 309.38672 592.44141 C 310.60894 592.49696 311.44227 592.67687 311.88672 592.98242 C 312.08116 593.09353 312.22135 593.23177 312.30469 593.39844 C 312.52691 593.89844 312.66515 595.1901 312.7207 597.27344 C 312.91068 604.84523 313.00347 609.49581 313.00781 611.41992 L 325.01172 637.85742 C 324.76172 637.24631 324.62348 636.71788 324.5957 636.27344 L 324.4707 626.69141 L 324.51172 620.52344 L 324.51172 615.39844 C 325.17839 615.14844 326.38672 615.02344 328.13672 615.02344 C 332.08117 615.02344 335.03949 615.41363 337.01172 616.19141 C 337.8401 616.50642 338.61411 616.95872 339.33984 617.5332 L 342.90234 612.47656 C 342.85434 612.46549 342.80998 612.45227 342.76172 612.44141 C 342.86406 612.3948 342.91403 612.36791 343.01367 612.32227 L 352.44336 598.94531 C 352.31974 598.30332 352.15337 597.67533 351.92969 597.06641 C 351.42969 595.70529 350.65126 594.48177 349.5957 593.39844 C 348.56792 592.28733 347.34636 591.38585 345.92969 590.69141 C 344.51302 589.96918 343.37283 589.49566 342.51172 589.27344 C 340.03949 588.60677 337.74783 588.28863 335.63672 588.31641 L 332.9707 588.31641 C 331.77626 588.28863 331.0395 588.27344 330.76172 588.27344 z M 571.13672 588.81641 C 571.00938 588.81641 570.15969 588.8457 569.47266 588.86914 L 562.61523 595.02344 C 562.73368 595.13501 562.85539 595.23881 562.9707 595.35742 C 563.44293 595.82964 563.76302 596.38455 563.92969 597.02344 C 564.31858 598.27344 564.52691 600.5102 564.55469 603.73242 L 564.67969 612.19141 L 564.61523 622.59375 L 568.85352 622.23828 L 568.88672 619.89844 C 568.88672 618.89844 568.87348 617.92687 568.8457 616.98242 L 568.4707 601.48242 L 575.26172 607.60742 C 578.0395 610.1352 581.12283 613.0651 584.51172 616.39844 L 588.60156 620.58594 L 603.33203 619.35352 C 592.67332 608.75862 584.97437 601.07217 582.88672 598.89844 C 580.19227 596.09288 576.70747 592.74631 572.42969 588.85742 C 571.87413 588.82964 571.44227 588.81641 571.13672 588.81641 z M 613.30078 588.82617 L 612.17969 588.85742 L 603.9707 589.10742 L 602.88672 589.23242 L 602.8457 591.69141 C 603.5957 592.0803 604.73394 592.39844 606.26172 592.64844 C 608.34505 592.95399 609.67838 593.41233 610.26172 594.02344 C 610.62283 594.41233 610.81793 595.51085 610.8457 597.31641 C 610.8457 597.87196 611.01237 599.96853 611.3457 603.60742 C 611.51237 605.46853 611.60894 607.55186 611.63672 609.85742 C 611.6645 612.1352 611.74783 614.10677 611.88672 615.77344 C 611.95476 616.57636 612.01544 617.53132 612.07031 618.62109 L 616.16992 618.2793 L 616.01172 613.23242 C 615.98394 612.28798 615.94227 611.44141 615.88672 610.69141 C 615.69227 608.35807 615.58247 605.17622 615.55469 601.14844 C 615.55469 599.3151 615.5395 598.14844 615.51172 597.64844 C 615.45616 596.64844 615.42969 596.0651 615.42969 595.89844 C 615.42969 595.20399 615.55469 594.69076 615.80469 594.35742 C 615.82927 594.32055 615.89788 594.26156 615.98633 594.19336 L 613.30078 588.82617 z M 328.88672 591.94141 C 332.97006 591.94141 336.02691 592.82964 338.05469 594.60742 C 340.08247 596.3852 341.0957 598.60677 341.0957 601.27344 C 341.0957 605.05122 340.02561 607.71788 337.88672 609.27344 C 335.74783 610.80122 332.59636 611.56641 328.42969 611.56641 C 326.92969 611.56641 325.62283 611.48307 324.51172 611.31641 C 324.48394 610.09418 324.4707 609.17752 324.4707 608.56641 L 324.51172 605.06641 C 324.51172 600.8164 324.44358 597.50955 324.30469 595.14844 C 324.24913 593.95399 324.2207 593.03733 324.2207 592.39844 C 326.16515 592.09288 327.72005 591.94141 328.88672 591.94141 z M 718.625 603.83984 L 709.78906 609.04492 L 709.63672 622.81641 L 709.55469 623.52344 L 709.5957 625.60742 L 709.55469 626.44141 L 709.55469 629.85742 L 709.42969 632.98242 L 709.42969 635.94141 C 709.42969 637.49696 709.2895 638.48177 709.01172 638.89844 C 708.7895 639.17622 708.23459 639.37131 707.3457 639.48242 C 705.31792 639.70464 704.08116 639.87131 703.63672 639.98242 L 703.63672 640.52344 C 703.94227 641.52344 704.23394 642.21853 704.51172 642.60742 L 708.5957 642.64844 L 714.42969 642.35742 C 715.81858 642.35742 717.38672 642.42752 719.13672 642.56641 L 723.76172 642.77344 C 723.87283 642.21788 723.92969 641.74631 723.92969 641.35742 C 723.92969 641.07964 723.90126 640.59288 723.8457 639.89844 C 723.42904 639.78733 722.87413 639.73242 722.17969 639.73242 C 721.51302 639.70464 720.6645 639.64974 719.63672 639.56641 C 719.13672 639.28863 718.83181 638.98177 718.7207 638.64844 C 718.4707 637.92621 718.3457 636.60807 718.3457 634.69141 C 718.3457 634.38585 718.37413 633.63585 718.42969 632.44141 C 718.51302 630.4414 718.55469 627.44141 718.55469 623.44141 L 718.55469 616.14844 C 719.72136 615.03733 721.12283 614.07899 722.76172 613.27344 C 724.42839 612.4401 726.13672 612.02344 727.88672 612.02344 C 729.38672 612.02344 730.66515 612.37196 731.7207 613.06641 C 732.77626 613.73307 733.47135 614.60807 733.80469 615.69141 C 734.13802 616.74696 734.30469 618.78863 734.30469 621.81641 L 734.30469 632.02344 L 734.0957 638.10742 C 734.06793 638.24631 733.99783 638.57964 733.88672 639.10742 C 733.13672 639.21853 732.33182 639.3303 731.4707 639.44141 C 730.63737 639.52474 729.90061 639.71788 729.26172 640.02344 C 729.12283 640.41233 729.05469 640.71918 729.05469 640.94141 L 729.13672 641.48242 L 729.13672 642.48242 C 729.38672 642.56576 729.66515 642.60742 729.9707 642.60742 C 731.85959 642.60742 733.4145 642.57899 734.63672 642.52344 C 736.35894 642.41233 737.73394 642.35742 738.76172 642.35742 C 740.34505 642.35742 742.30338 642.46918 744.63672 642.69141 C 745.85894 642.80252 746.67904 642.85742 747.0957 642.85742 L 748.05469 642.81641 C 748.05469 642.20529 748.08116 641.74696 748.13672 641.44141 L 748.17969 641.10742 C 748.17969 640.85742 748.06793 640.52409 747.8457 640.10742 C 747.42904 639.99631 746.8457 639.87131 746.0957 639.73242 C 744.79015 639.48242 743.97005 639.28733 743.63672 639.14844 C 743.49783 639.0651 743.37283 638.89844 743.26172 638.64844 L 743.4707 630.14844 L 743.42969 624.27344 L 743.42969 621.60742 C 743.42969 618.52409 743.30469 616.44076 743.05469 615.35742 C 742.69358 613.74631 742.08182 612.38455 741.2207 611.27344 C 740.35959 610.13455 739.13802 609.19141 737.55469 608.44141 C 735.99913 607.66363 734.15061 607.27344 732.01172 607.27344 C 729.76172 607.27344 727.59505 607.6901 725.51172 608.52344 C 723.42838 609.35677 721.12348 610.77344 718.5957 612.77344 L 718.625 603.83984 z M 165.26172 605.35742 C 163.53949 607.05187 161.94293 608.23177 160.4707 608.89844 C 158.30403 609.92622 155.78885 610.52474 152.92773 610.69141 L 152.92773 611.25586 L 168.16211 610.53125 C 168.13479 608.64033 168.10114 606.85814 168.05273 605.35742 L 165.26172 605.35742 z M 461.92969 605.35742 C 460.20746 607.05187 458.60894 608.23177 457.13672 608.89844 C 454.97005 609.92622 452.45682 610.52474 449.5957 610.69141 L 449.5957 613.02344 C 451.59571 613.16233 452.99913 613.38585 453.80469 613.69141 C 454.61024 613.99696 455.16515 614.35677 455.4707 614.77344 C 455.63737 615.69011 455.7207 616.58029 455.7207 617.44141 L 455.63672 624.23242 L 455.67969 626.19141 L 455.63672 628.27344 C 455.72005 629.77344 455.76172 630.78863 455.76172 631.31641 C 455.76172 631.98307 455.73524 632.75955 455.67969 633.64844 C 455.65191 634.50955 455.63672 635.10807 455.63672 635.44141 L 455.63672 635.89844 C 455.63672 637.20399 455.49848 638.05252 455.2207 638.44141 C 454.9707 638.80252 454.49913 639.07899 453.80469 639.27344 L 449.0957 639.89844 L 449.17969 642.60742 C 449.65191 642.60742 450.52691 642.56576 451.80469 642.48242 C 452.57148 642.41575 453.35787 642.37609 454.1543 642.34961 L 464.85938 613.70898 C 464.83468 610.53182 464.79419 607.63558 464.7207 605.35742 L 461.92969 605.35742 z M 267.17969 605.52344 L 264.26172 605.64844 C 263.92839 605.98177 263.54015 606.46853 263.0957 607.10742 C 262.26237 608.27409 261.01237 609.42752 259.3457 610.56641 C 257.67903 611.67752 255.81728 612.37066 253.76172 612.64844 L 253.88672 614.19141 C 253.99783 614.66363 254.33116 614.96853 254.88672 615.10742 C 256.08116 615.3852 257.02626 615.70529 257.7207 616.06641 C 258.10959 616.39974 258.33116 616.78798 258.38672 617.23242 C 258.69227 619.70465 258.8457 624.45464 258.8457 631.48242 C 258.8457 635.31576 258.7207 637.56575 258.4707 638.23242 C 257.19292 639.03798 255.84636 639.59288 254.42969 639.89844 C 253.84635 640.03733 253.37283 640.26085 253.01172 640.56641 C 252.92839 640.98307 252.88672 641.30122 252.88672 641.52344 C 252.88672 641.56772 252.9088 641.66955 252.91211 641.72266 L 255.97656 642.38281 C 256.28759 642.36913 257.28428 642.31641 257.3457 642.31641 L 258.05469 642.31641 C 259.69358 642.14974 261.51172 642.06641 263.51172 642.06641 L 271.4707 642.48242 L 275.38672 642.48242 C 275.55339 641.98242 275.63672 641.57899 275.63672 641.27344 C 275.63672 640.74566 275.49848 640.37066 275.2207 640.14844 C 274.94293 639.89844 274.1645 639.71853 272.88672 639.60742 C 271.60894 639.49631 270.70747 639.35807 270.17969 639.19141 C 269.67969 639.02474 269.17969 638.74631 268.67969 638.35742 C 268.23524 637.66298 267.97005 636.96788 267.88672 636.27344 C 267.83116 628.6901 267.74783 623.87196 267.63672 621.81641 L 267.55469 620.69141 C 267.55469 619.1914 267.94292 617.74631 268.7207 616.35742 C 269.19293 615.49631 269.72135 614.96788 270.30469 614.77344 L 270.5957 614.73242 C 271.06793 614.73242 271.69292 615.03733 272.4707 615.64844 C 273.77626 616.64844 275.02626 617.14844 276.2207 617.14844 C 277.58182 617.14844 278.66515 616.6352 279.4707 615.60742 C 280.30404 614.55187 280.7207 613.37196 280.7207 612.06641 C 280.7207 610.76085 280.17904 609.60742 279.0957 608.60742 C 278.01237 607.60742 276.73394 607.10742 275.26172 607.10742 C 274.06727 607.10742 272.99913 607.45399 272.05469 608.14844 C 270.83246 609.20399 270.0957 609.88585 269.8457 610.19141 C 269.31792 610.85807 268.48459 612.16298 267.3457 614.10742 C 267.31793 612.10742 267.30469 610.95399 267.30469 610.64844 C 267.30469 610.00955 267.31793 609.20465 267.3457 608.23242 C 267.37348 607.78798 267.38672 607.41298 267.38672 607.10742 C 267.38672 606.69075 267.31858 606.16233 267.17969 605.52344 z M 231.0957 607.14844 C 229.95681 607.14844 228.47005 607.41363 226.63672 607.94141 C 225.22005 608.35807 223.62348 609.20464 221.8457 610.48242 C 220.0957 611.7602 218.44228 613.53863 216.88672 615.81641 C 216.33116 616.59418 215.69293 618.16232 214.9707 620.52344 C 214.58181 622.46788 214.38672 624.64974 214.38672 627.06641 C 214.38672 628.34419 214.73524 630.03732 215.42969 632.14844 C 215.61282 632.70747 215.84188 633.25949 216.0918 633.80859 L 244.18555 639.84766 C 245.67437 638.77806 247.13174 637.4669 248.55469 635.89844 C 247.88802 635.3151 247.05469 634.66363 246.05469 633.94141 C 244.61024 634.96919 243.37348 635.70399 242.3457 636.14844 C 241.3457 636.5651 240.17904 636.91363 238.8457 637.19141 C 238.12348 637.3303 236.69358 637.39844 234.55469 637.39844 L 232.13672 636.60742 C 230.99783 636.21853 229.88802 635.5803 228.80469 634.69141 C 227.74913 633.80252 226.85894 632.74566 226.13672 631.52344 C 225.4145 630.27344 224.87283 628.84353 224.51172 627.23242 C 224.15061 625.59353 223.9707 624.03863 223.9707 622.56641 C 223.9707 622.28863 223.99913 621.9553 224.05469 621.56641 L 227.63672 621.56641 C 230.44228 621.53863 231.94227 621.52344 232.13672 621.52344 C 232.74783 621.52344 233.85959 621.5803 235.4707 621.69141 C 239.80404 621.94141 242.60894 622.06641 243.88672 622.06641 L 248.51172 622.14844 C 248.45616 620.00955 248.12283 618.19141 247.51172 616.69141 C 246.92838 615.1914 246.16515 613.88455 245.2207 612.77344 C 244.27626 611.66233 243.02626 610.56576 241.4707 609.48242 C 240.38737 608.73242 239.0408 608.16233 237.42969 607.77344 C 235.81857 607.35677 233.70682 607.14844 231.0957 607.14844 z M 379.55469 607.14844 C 378.4158 607.14844 376.92904 607.41363 375.0957 607.94141 C 373.67904 608.35807 372.08247 609.20464 370.30469 610.48242 C 369.79016 610.85811 369.28686 611.2917 368.78906 611.75391 L 362.9082 628.07422 C 363.03574 629.19448 363.36098 630.55018 363.88672 632.14844 C 364.4145 633.75955 365.22135 635.32964 366.30469 636.85742 C 367.38802 638.3852 368.67969 639.66363 370.17969 640.69141 C 371.67969 641.71919 373.35959 642.48242 375.2207 642.98242 C 376.60959 643.37131 378.40126 643.56641 380.5957 643.56641 C 383.84571 643.56641 386.7756 642.96788 389.38672 641.77344 C 392.02561 640.55121 394.56727 638.59288 397.01172 635.89844 C 396.34505 635.3151 395.51172 634.66363 394.51172 633.94141 C 393.06727 634.96919 391.83247 635.70399 390.80469 636.14844 C 389.80469 636.5651 388.63802 636.91363 387.30469 637.19141 C 386.58246 637.3303 385.15061 637.39844 383.01172 637.39844 L 380.5957 636.60742 C 379.45681 636.21853 378.34505 635.5803 377.26172 634.69141 C 376.20616 633.80252 375.31793 632.74566 374.5957 631.52344 C 373.87348 630.27344 373.33181 628.84353 372.9707 627.23242 C 372.60959 625.59353 372.42969 624.03863 372.42969 622.56641 C 372.42969 622.28863 372.45616 621.9553 372.51172 621.56641 L 376.0957 621.56641 C 378.90126 621.53863 380.40126 621.52344 380.5957 621.52344 C 381.20681 621.52344 382.31857 621.5803 383.92969 621.69141 C 388.26303 621.94141 391.06792 622.06641 392.3457 622.06641 L 396.9707 622.14844 C 396.91515 620.00955 396.58181 618.19141 395.9707 616.69141 C 395.38737 615.1914 394.62413 613.88455 393.67969 612.77344 C 392.73524 611.66233 391.48524 610.56576 389.92969 609.48242 C 388.84635 608.73242 387.49783 608.16233 385.88672 607.77344 C 384.27561 607.35677 382.1658 607.14844 379.55469 607.14844 z M 199.42773 608.52344 L 197.9707 608.64844 C 197.88359 608.7791 197.81859 608.94311 197.76562 609.125 L 200.74414 608.98242 L 197.66602 609.84375 C 197.65928 609.94972 197.63672 610.03236 197.63672 610.14844 C 197.63672 610.59288 197.66515 611.06641 197.7207 611.56641 L 198.38672 611.64844 L 198.88672 611.64844 C 200.30339 611.64844 201.83181 611.77344 203.4707 612.02344 C 203.38737 613.13455 203.05404 614.59288 202.4707 616.39844 C 200.78971 621.56593 199.19245 626.0483 197.68164 629.85156 L 200.4707 630.45117 L 201.80273 627.23242 C 204.2194 621.76019 205.98459 617.35677 207.0957 614.02344 L 207.26172 613.64844 C 207.31727 613.50955 207.44227 613.24631 207.63672 612.85742 C 208.72005 612.27409 210.67838 611.64909 213.51172 610.98242 C 213.5395 610.5102 213.55469 610.12196 213.55469 609.81641 C 213.55469 609.51085 213.5395 609.10742 213.51172 608.60742 C 213.01172 608.57964 212.62348 608.56641 212.3457 608.56641 L 209.01172 608.73242 C 207.65061 608.73242 206.3457 608.67752 205.0957 608.56641 L 203.05273 608.56641 L 199.42773 608.52344 z M 174.30273 608.60742 L 173.3457 608.64844 C 173.20681 608.98177 173.13672 609.41363 173.13672 609.94141 C 173.13672 610.07159 173.15669 610.17092 173.16211 610.29297 L 192.20508 609.38867 C 192.16368 609.17649 192.10177 608.93361 192.01172 608.64844 L 191.05273 608.64844 L 185.55273 608.85742 L 182.9707 608.81641 L 174.30273 608.60742 z M 231.8457 609.77344 C 233.0957 609.77344 234.33246 610.17687 235.55469 610.98242 C 236.77691 611.7602 237.67838 612.85677 238.26172 614.27344 C 238.84505 615.69011 239.15191 617.17686 239.17969 618.73242 C 238.67969 618.70464 238.30469 618.69141 238.05469 618.69141 C 237.72135 618.69141 237.15126 618.73307 236.3457 618.81641 C 235.23459 618.89974 234.37283 618.94141 233.76172 618.94141 L 224.26172 618.89844 C 224.45616 616.09288 225.30469 613.87131 226.80469 612.23242 C 228.30469 610.59353 229.98459 609.77344 231.8457 609.77344 z M 380.30469 609.77344 C 381.55469 609.77344 382.7895 610.17687 384.01172 610.98242 C 385.23394 611.7602 386.13737 612.85677 386.7207 614.27344 C 387.30404 615.69011 387.60894 617.17686 387.63672 618.73242 C 387.13672 618.70464 386.76172 618.69141 386.51172 618.69141 C 386.17839 618.69141 385.61024 618.73307 384.80469 618.81641 C 383.69358 618.89974 382.83181 618.94141 382.2207 618.94141 L 372.7207 618.89844 C 372.91515 616.09288 373.76172 613.87131 375.26172 612.23242 C 376.76172 610.59353 378.44357 609.77344 380.30469 609.77344 z M 187.39258 612.71875 L 178.49414 615.20898 C 179.9149 618.24761 181.23389 621.19258 182.38672 623.98242 L 188.05273 636.64844 C 189.2194 639.31511 190.3444 641.58029 191.42773 643.44141 L 194.80273 643.44141 C 195.13607 642.74696 195.5395 641.92687 196.01172 640.98242 C 196.2895 640.45464 196.7194 639.49631 197.30273 638.10742 L 198.74609 634.61719 L 196.31641 633.14844 C 196.27093 633.25397 196.22304 633.37821 196.17773 633.48242 C 196.10307 633.33309 196.00624 633.09516 195.92188 632.9082 L 187.11914 627.58203 L 194.4082 629.14844 C 193.5004 626.87722 192.19151 623.96154 190.42773 620.31641 C 189.76107 618.98307 189.30273 617.98307 189.05273 617.31641 C 188.44162 615.78863 188.05339 614.8852 187.88672 614.60742 C 187.52561 613.91298 187.3457 613.32964 187.3457 612.85742 C 187.3457 612.80942 187.37734 612.76506 187.39258 612.71875 z M 696.26953 617.00977 L 693.26758 618.77734 C 693.7656 618.82871 694.16269 618.85742 694.42969 618.85742 C 694.90191 618.85742 695.49848 618.74566 696.2207 618.52344 C 696.30404 618.30122 696.3457 618.09288 696.3457 617.89844 C 696.3457 617.75946 696.30362 617.35871 696.26953 617.00977 z M 168.2168 618.08398 L 159.01367 620.66016 L 158.9707 624.23242 L 159.01172 626.19141 L 158.9707 628.27344 C 159.05404 629.77344 159.0957 630.78863 159.0957 631.31641 C 159.0957 631.98307 159.06727 632.75955 159.01172 633.64844 C 158.98394 634.50955 158.9707 635.10807 158.9707 635.44141 L 158.9707 635.89844 C 158.9707 637.20399 158.83051 638.05252 158.55273 638.44141 C 158.30273 638.80252 157.83116 639.07899 157.13672 639.27344 L 152.42773 639.89844 L 152.51172 642.60742 C 152.98394 642.60742 153.85894 642.56576 155.13672 642.48242 C 156.4145 642.37131 157.73459 642.31641 159.0957 642.31641 C 163.84571 642.31641 167.63737 642.38455 170.4707 642.52344 C 171.33182 642.57899 171.97005 642.60742 172.38672 642.60742 C 172.74783 642.60742 173.30273 642.59418 174.05273 642.56641 L 174.0957 640.27344 C 173.65126 640.10677 173.05274 639.96853 172.30273 639.85742 C 170.35829 639.55187 168.95682 639.24696 168.0957 638.94141 C 167.98459 637.99696 167.92773 636.94011 167.92773 635.77344 L 168.2207 618.77344 C 168.2207 618.51991 168.21703 618.33314 168.2168 618.08398 z M 548.13672 621.35742 L 541.4707 621.44141 L 533.16797 621.44141 L 528.19531 625.90234 C 528.16828 626.46524 528.13672 627.04069 528.13672 627.52344 C 528.13672 627.9401 528.15191 628.55187 528.17969 629.35742 L 550.76172 629.31641 L 550.76172 628.56641 C 550.76172 628.06641 550.77691 627.64974 550.80469 627.31641 L 550.9707 625.14844 L 550.92969 624.44141 C 550.84635 623.80252 550.76302 622.82899 550.67969 621.52344 C 549.90191 621.41233 549.05339 621.35742 548.13672 621.35742 z M 688.59961 621.52734 L 677.39453 628.12695 C 677.47644 628.16033 677.55369 628.20062 677.63672 628.23242 C 678.22005 628.45464 679.90191 628.91298 682.67969 629.60742 C 685.48525 630.30187 687.23524 630.80187 687.92969 631.10742 C 689.34636 631.71853 690.2895 632.34353 690.76172 632.98242 C 691.23394 633.59353 691.4707 634.34353 691.4707 635.23242 C 691.4707 636.53798 690.8457 637.75955 689.5957 638.89844 C 688.48492 639.8858 687.17554 640.43278 685.66992 640.54297 L 688.97656 643.09961 C 691.33554 642.59508 693.26536 641.68179 694.76172 640.35742 C 697.20617 638.19075 698.42969 635.49566 698.42969 632.27344 C 698.42969 630.1901 697.9145 628.35677 696.88672 626.77344 C 695.88672 625.1901 694.13672 623.81511 691.63672 622.64844 C 690.83804 622.27486 689.81034 621.90077 688.59961 621.52734 z M 144.76172 624.64844 L 135.80273 627.15625 L 135.80273 634.69141 C 135.80273 636.91363 135.52626 638.3852 134.9707 639.10742 C 134.69293 639.46853 133.5944 639.7602 131.67773 639.98242 C 130.67773 640.09353 129.87283 640.35677 129.26172 640.77344 L 129.42773 642.69141 L 132.4707 642.69141 C 135.47071 642.44141 137.76237 642.31641 139.3457 642.31641 L 140.88672 642.35742 C 143.6645 642.35742 145.9694 642.42752 147.80273 642.56641 L 151.0957 642.73242 C 151.15126 642.23242 151.17773 641.84418 151.17773 641.56641 C 151.17773 641.20529 151.10959 640.73177 150.9707 640.14844 C 149.24848 639.92622 148.09505 639.78798 147.51172 639.73242 C 146.42838 639.64909 145.72005 639.42752 145.38672 639.06641 C 144.99783 638.56641 144.80273 637.71788 144.80273 636.52344 L 144.80273 635.52344 L 144.76172 629.44141 L 144.76172 624.64844 z M 564.59766 625.27539 L 564.5957 625.73242 L 564.5957 628.02344 C 564.5957 628.99566 564.49913 631.69075 564.30469 636.10742 C 564.24913 637.6352 563.99913 638.58029 563.55469 638.94141 C 563.13802 639.27474 561.76302 639.44141 559.42969 639.44141 C 558.51302 639.38585 557.97135 639.35742 557.80469 639.35742 C 557.30469 639.35742 556.6645 639.42752 555.88672 639.56641 C 555.85894 640.26085 555.8457 640.76085 555.8457 641.06641 C 555.8457 641.53863 555.87413 642.09353 555.92969 642.73242 C 556.51302 642.84353 556.97135 642.89844 557.30469 642.89844 C 557.44358 642.89844 558.24848 642.84353 559.7207 642.73242 C 561.19293 642.62131 564.13802 642.53798 568.55469 642.48242 C 573.27691 642.89909 576.08181 643.10742 576.9707 643.10742 L 578.5957 643.06641 L 578.42969 639.69141 C 577.95746 639.55252 577.5957 639.45399 577.3457 639.39844 C 573.70681 639.20399 571.34505 638.91233 570.26172 638.52344 C 570.01172 637.96788 569.84505 637.55122 569.76172 637.27344 C 569.67839 636.96788 569.61024 636.45464 569.55469 635.73242 C 569.33247 633.06575 569.17904 630.59419 569.0957 628.31641 L 569 626.20898 L 564.59766 625.27539 z M 119.65625 631.67383 L 105.48242 635.64062 C 104.69467 636.38888 103.84509 637.02037 102.92773 637.52344 C 100.37218 638.91233 97.595706 639.60742 94.595703 639.60742 C 93.779879 639.60742 92.964259 639.52596 92.148438 639.37109 L 83.429688 641.8125 C 83.68978 641.89863 83.630827 641.88475 83.927734 641.98242 C 85.094402 642.37131 86.456162 642.67622 88.011719 642.89844 C 90.067276 643.20399 92.275605 643.35742 94.636719 643.35742 C 104.16451 643.35742 111.5944 640.55252 116.92773 634.94141 C 117.93061 633.89176 118.84098 632.80221 119.65625 631.67383 z M 601.02539 633.00195 L 606.92969 638.85742 L 611.88672 643.98242 L 616.67969 643.81641 L 616.67969 641.60742 C 616.67969 641.3852 616.62283 640.7053 616.51172 639.56641 L 616.63672 637.31641 L 616.57812 636.30078 L 601.02539 633.00195 z M 522.4707 636.02344 C 522.10959 636.27344 521.84635 636.46853 521.67969 636.60742 C 520.81858 637.27409 520.20681 637.67752 519.8457 637.81641 C 519.48459 637.9553 518.92969 638.02344 518.17969 638.02344 C 517.40191 638.02344 516.69358 637.87196 516.05469 637.56641 C 515.93896 637.40568 515.8342 637.24389 515.73633 637.08008 L 510.20312 642.04297 C 511.44616 642.6955 512.88117 643.02344 514.51172 643.02344 C 516.51172 643.02344 518.38672 642.59353 520.13672 641.73242 C 521.9145 640.84353 523.2895 639.6352 524.26172 638.10742 L 524.0957 637.60742 C 523.67904 637.07964 523.13737 636.55122 522.4707 636.02344 z "
         transform="scale(0.26458333)" />
      <path
         id="text539"
         style="font-style:normal;font-variant:normal;font-weight:normal;font-stretch:normal;font-size:22.5778px;line-height:1.25;font-family:Garamond;-inkscape-font-specification:Garamond;fill:#00ffff;fill-opacity:1;stroke:none;stroke-width:0.264583"
         d="M 200.74414 608.98242 L 197.76562 609.125 C 197.707 609.32632 197.6828 609.57967 197.66602 609.84375 L 200.74414 608.98242 z M 192.20508 609.38867 L 173.16211 610.29297 C 173.17404 610.56155 173.18251 610.83722 173.2207 611.06641 C 173.55404 611.39974 174.8457 611.87131 177.0957 612.48242 C 177.23459 612.59353 177.4145 612.8852 177.63672 613.35742 C 177.93888 613.99007 178.20321 614.58677 178.49414 615.20898 L 187.39258 612.71875 C 187.43906 612.57747 187.53242 612.44193 187.7207 612.31641 C 188.05404 612.06641 188.90061 611.84288 190.26172 611.64844 C 190.95616 611.5651 191.56792 611.48177 192.0957 611.39844 C 192.20681 610.70399 192.26172 610.19076 192.26172 609.85742 C 192.26172 609.72974 192.24029 609.56918 192.20508 609.38867 z M 168.16211 610.53125 L 152.92773 611.25586 L 152.92773 613.02344 C 154.92774 613.16233 156.33116 613.38585 157.13672 613.69141 C 157.94228 613.99696 158.49718 614.35677 158.80273 614.77344 C 158.9694 615.69011 159.05273 616.58029 159.05273 617.44141 L 159.01367 620.66016 L 168.2168 618.08398 C 168.21414 615.28291 168.1946 612.78031 168.16211 610.53125 z M 144.76172 611.64453 L 135.76172 612.07227 L 135.76172 620.14844 L 135.80273 622.94141 L 135.80273 627.15625 L 144.76172 624.64844 L 144.76172 611.64453 z M 124.87695 612.58984 L 111.35156 613.23242 C 111.43012 614.76631 111.4707 616.10562 111.4707 617.23242 C 111.4707 622.62132 110.69228 626.99631 109.13672 630.35742 C 108.13355 632.52499 106.91304 634.28173 105.48242 635.64062 L 119.65625 631.67383 C 123.19921 626.77019 124.9707 621.123 124.9707 614.73242 C 124.9707 614.01376 124.93567 613.29975 124.87695 612.58984 z M 78.556641 614.79102 L 65.191406 615.42773 C 65.223539 618.08167 65.50353 620.42766 66.052734 622.44141 C 66.941624 625.77474 67.733289 628.07964 68.427734 629.35742 C 69.705513 631.6352 71.262368 633.67686 73.095703 635.48242 C 74.929038 637.28798 77.358938 639.05121 80.386719 640.77344 C 80.601559 640.86892 81.840417 641.28622 83.429688 641.8125 L 92.148438 639.37109 C 91.380927 639.2254 90.613214 639.01519 89.845703 638.73242 C 88.262368 638.12131 87.054037 637.45464 86.220703 636.73242 C 84.581813 635.34353 83.345053 633.94011 82.511719 632.52344 C 82.011718 631.6901 81.165149 629.5102 79.970703 625.98242 C 79.637369 625.03798 79.345703 623.53798 79.095703 621.48242 C 78.984592 620.67687 78.901259 620.10677 78.845703 619.77344 C 78.655768 618.76949 78.561045 617.09367 78.556641 614.79102 z "
         transform="scale(0.26458333)" />
      <path
         id="path548"
         style="font-style:normal;font-variant:normal;font-weight:normal;font-stretch:normal;font-size:22.5778px;line-height:1.25;font-family:Garamond;-inkscape-font-specification:Garamond;fill:#00ffff;fill-opacity:1;stroke:none;stroke-width:0.264583"
         d="M 562.13672 588.85742 C 561.49783 588.85742 560.34636 588.89909 558.67969 588.98242 L 557.4707 589.02344 L 553.92969 589.02344 L 554.0957 591.94141 C 557.12348 592.41363 558.99848 592.80187 559.7207 593.10742 C 560.77348 593.54812 561.7351 594.19432 562.61523 595.02344 L 569.47266 588.86914 C 569.11057 588.88149 569.1134 588.87926 568.5957 588.89844 C 567.0957 588.95399 566.2207 588.98242 565.9707 588.98242 C 565.7207 588.98242 565.4158 588.96918 565.05469 588.94141 C 563.44357 588.88585 562.47005 588.85742 562.13672 588.85742 z M 486.0957 600.44141 C 484.42903 603.44141 482.85894 605.60807 481.38672 606.94141 C 479.94227 608.27474 477.58247 609.63455 474.30469 611.02344 C 474.24913 612.10677 474.2207 612.73177 474.2207 612.89844 C 474.2207 613.12066 474.30404 613.35742 474.4707 613.60742 L 475.01172 613.73242 L 478.01172 613.69141 L 479.30469 613.73242 L 479.30469 625.60742 L 479.13672 632.94141 C 479.13672 636.38585 479.94357 638.92752 481.55469 640.56641 C 483.1658 642.2053 485.26237 643.02344 487.8457 643.02344 C 489.84571 643.02344 491.7207 642.59353 493.4707 641.73242 C 495.24848 640.84353 496.62348 639.6352 497.5957 638.10742 L 497.42969 637.60742 C 497.01302 637.07964 496.47135 636.55122 495.80469 636.02344 C 495.44358 636.27344 495.17839 636.46853 495.01172 636.60742 C 494.15061 637.27409 493.5408 637.67752 493.17969 637.81641 C 492.81858 637.9553 492.26172 638.02344 491.51172 638.02344 C 490.73394 638.02344 490.02561 637.87196 489.38672 637.56641 C 488.88672 636.87196 488.55339 636.14844 488.38672 635.39844 C 488.24783 634.62066 488.19293 632.69076 488.2207 629.60742 L 488.30469 613.69141 L 490.30469 613.60742 L 491.05469 613.64844 L 493.2207 613.64844 C 493.88737 613.70399 494.33247 613.73242 494.55469 613.73242 C 495.02691 613.73242 495.72005 613.67752 496.63672 613.56641 C 496.83116 612.70529 496.92969 611.9553 496.92969 611.31641 C 496.92969 610.73307 496.84635 610.06641 496.67969 609.31641 C 494.7908 609.37196 493.74913 609.39844 493.55469 609.39844 C 491.08246 609.50955 489.77561 609.56641 489.63672 609.56641 L 488.67969 609.52344 C 488.65191 609.02344 488.63672 608.7053 488.63672 608.56641 L 488.76172 606.10742 C 488.7895 605.30187 488.80469 604.17687 488.80469 602.73242 C 488.80469 601.92687 488.67969 601.16363 488.42969 600.44141 L 486.0957 600.44141 z M 512.76172 600.44141 C 511.09505 603.44141 509.52691 605.60807 508.05469 606.94141 C 506.61024 608.27474 504.24848 609.63455 500.9707 611.02344 C 500.91515 612.10677 500.88672 612.73177 500.88672 612.89844 C 500.88672 613.12066 500.97005 613.35742 501.13672 613.60742 L 501.67969 613.73242 L 504.67969 613.69141 L 505.9707 613.73242 L 505.9707 625.60742 L 505.80469 632.94141 C 505.80469 636.38585 506.60959 638.92752 508.2207 640.56641 C 508.81492 641.17086 509.47677 641.66167 510.20312 642.04297 L 515.73633 637.08008 C 515.41134 636.53612 515.18277 635.97485 515.05469 635.39844 C 514.9158 634.62066 514.85894 632.69076 514.88672 629.60742 L 514.9707 613.69141 L 516.9707 613.60742 L 517.7207 613.64844 L 519.88672 613.64844 C 520.55339 613.70399 520.99848 613.73242 521.2207 613.73242 C 521.69293 613.73242 522.38802 613.67752 523.30469 613.56641 C 523.49913 612.70529 523.5957 611.9553 523.5957 611.31641 C 523.5957 610.73307 523.51237 610.06641 523.3457 609.31641 C 521.45681 609.37196 520.41515 609.39844 520.2207 609.39844 C 517.74848 609.50955 516.44358 609.56641 516.30469 609.56641 L 515.3457 609.52344 C 515.31793 609.02344 515.30469 608.7053 515.30469 608.56641 L 515.42969 606.10742 C 515.45747 605.30187 515.4707 604.17687 515.4707 602.73242 C 515.4707 601.92687 515.3457 601.16363 515.0957 600.44141 L 512.76172 600.44141 z M 464.85938 613.70898 L 454.1543 642.34961 C 454.68503 642.33197 455.2174 642.31641 455.76172 642.31641 C 460.51172 642.31641 464.30338 642.38455 467.13672 642.52344 C 467.99783 642.57899 468.63802 642.60742 469.05469 642.60742 C 469.4158 642.60742 469.9707 642.59418 470.7207 642.56641 L 470.76172 640.27344 C 470.31727 640.10677 469.7207 639.96853 468.9707 639.85742 C 467.02626 639.55187 465.62283 639.24696 464.76172 638.94141 C 464.65061 637.99696 464.5957 636.94011 464.5957 635.77344 L 464.88672 618.77344 C 464.88672 616.91113 464.87202 615.33552 464.85938 613.70898 z M 528.3457 621.44141 L 528.2207 622.14844 L 528.26172 624.23242 C 528.26172 624.42687 528.24848 624.74696 528.2207 625.19141 C 528.20377 625.45392 528.20717 625.65549 528.19531 625.90234 L 533.16797 621.44141 L 528.3457 621.44141 z "
         transform="scale(0.26458333)" />
      <path
         id="path558"
         style="font-style:normal;font-variant:normal;font-weight:normal;font-stretch:normal;font-size:22.5778px;line-height:1.25;font-family:Garamond;-inkscape-font-specification:Garamond;fill:#00ffff;fill-opacity:1;stroke:none;stroke-width:0.264583"
         d="M 352.44336 598.94531 L 343.01367 612.32227 C 345.64563 611.11648 347.38731 610.22669 348.13672 609.69141 C 349.6645 608.55252 350.80469 607.31576 351.55469 605.98242 C 352.30469 604.62131 352.67969 603.09288 352.67969 601.39844 C 352.67969 600.55414 352.59606 599.73835 352.44336 598.94531 z M 313.00781 611.41992 C 313.00791 611.46521 313.01172 611.60628 313.01172 611.64844 L 313.0957 629.35742 C 313.0957 632.3852 312.98394 634.67686 312.76172 636.23242 C 312.65061 636.81576 312.40061 637.42752 312.01172 638.06641 C 310.87283 638.53863 309.40126 638.89844 307.5957 639.14844 C 306.65126 639.28733 305.84635 639.44076 305.17969 639.60742 L 305.0957 642.94141 C 310.42904 642.74696 313.67904 642.62196 314.8457 642.56641 C 318.9846 642.28863 322.55468 642.14844 325.55469 642.14844 L 332.63672 642.31641 C 335.80339 642.31641 338.16515 642.17622 339.7207 641.89844 C 342.83182 641.34288 345.26172 640.63455 347.01172 639.77344 C 348.7895 638.91233 350.47135 637.63585 352.05469 635.94141 C 353.24913 634.66363 354.0957 633.27344 354.5957 631.77344 C 355.29015 629.77344 355.63672 627.85677 355.63672 626.02344 C 355.63672 622.9401 354.54015 620.14844 352.3457 617.64844 C 350.17651 615.14974 347.02579 613.42812 342.90234 612.47656 L 339.33984 617.5332 C 340.34195 618.32645 341.24916 619.3596 342.05469 620.64844 C 343.05469 622.25955 343.55469 624.39974 343.55469 627.06641 C 343.55469 629.64974 343.09636 631.80121 342.17969 633.52344 C 341.26302 635.24566 339.80469 636.59418 337.80469 637.56641 C 335.80469 638.51085 333.22136 638.98242 330.05469 638.98242 C 328.49913 638.98242 326.81728 638.60742 325.01172 637.85742 L 313.00781 611.41992 z M 368.78906 611.75391 C 367.59375 612.86376 366.44391 614.20832 365.3457 615.81641 C 364.79015 616.59418 364.15191 618.16232 363.42969 620.52344 C 363.0408 622.46788 362.8457 624.64974 362.8457 627.06641 C 362.8457 627.37682 362.86728 627.71474 362.9082 628.07422 L 368.78906 611.75391 z M 187.11914 627.58203 L 195.92188 632.9082 C 195.62959 632.2605 195.29628 631.45676 194.88672 630.35742 C 194.75037 629.99099 194.57268 629.55993 194.4082 629.14844 L 187.11914 627.58203 z M 197.68164 629.85156 C 197.21736 631.02033 196.76448 632.10857 196.31641 633.14844 L 198.74609 634.61719 L 200.4707 630.45117 L 197.68164 629.85156 z M 216.0918 633.80859 C 216.56213 634.84198 217.13828 635.85976 217.8457 636.85742 C 218.92904 638.3852 220.2207 639.66363 221.7207 640.69141 C 223.2207 641.71919 224.90061 642.48242 226.76172 642.98242 C 228.15061 643.37131 229.94227 643.56641 232.13672 643.56641 C 235.38672 643.56641 238.31857 642.96788 240.92969 641.77344 C 242.03245 641.26268 243.11674 640.6155 244.18555 639.84766 L 216.0918 633.80859 z M 252.91211 641.72266 C 252.92541 641.93605 252.94499 642.16756 253.01172 642.52344 C 254.85494 642.42843 255.30307 642.41244 255.97656 642.38281 L 252.91211 641.72266 z "
         transform="scale(0.26458333)" />
      <path
         id="path564"
         style="font-style:normal;font-variant:normal;font-weight:normal;font-stretch:normal;font-size:22.5778px;line-height:1.25;font-family:Garamond;-inkscape-font-specification:Garamond;fill:#00ffff;fill-opacity:1;stroke:none;stroke-width:0.264583"
         d="M 623.0957 588.56641 C 622.54015 588.56641 621.95681 588.57964 621.3457 588.60742 L 613.30078 588.82617 L 615.98633 594.19336 C 616.29763 593.95331 616.99249 593.52575 618.0957 592.89844 C 618.37348 592.73177 619.40191 592.4401 621.17969 592.02344 C 621.84635 591.85677 622.49783 591.60677 623.13672 591.27344 L 623.0957 588.56641 z M 718.64453 598.10938 L 709.70117 600.29492 C 709.76991 601.88723 709.80469 603.95928 709.80469 606.52344 L 709.80469 607.69141 L 709.78906 609.04492 L 718.625 603.83984 L 718.64453 598.10938 z M 683.13672 607.23242 C 681.27561 607.23242 679.52561 607.55252 677.88672 608.19141 C 676.27561 608.8303 675.06728 609.53863 674.26172 610.31641 C 673.15061 611.34419 672.2908 612.53733 671.67969 613.89844 C 671.06858 615.23177 670.76172 616.95529 670.76172 619.06641 C 670.76172 620.2053 671.12348 621.5651 671.8457 623.14844 C 672.37348 624.25955 673.13672 625.25955 674.13672 626.14844 C 675.09914 626.9808 676.18854 627.63552 677.39453 628.12695 L 688.59961 621.52734 C 687.19959 621.09554 685.54707 620.6644 683.5957 620.23242 C 681.17903 619.73242 679.48394 618.99566 678.51172 618.02344 C 677.51172 617.07899 677.01172 616.14909 677.01172 615.23242 C 677.01172 613.84353 677.48524 612.74696 678.42969 611.94141 C 679.73524 610.83029 681.34505 610.27344 683.26172 610.27344 C 685.09505 610.27344 686.70681 610.78863 688.0957 611.81641 C 689.51237 612.81641 690.88737 614.55121 692.2207 617.02344 C 692.63737 617.80122 692.9707 618.38455 693.2207 618.77344 C 693.24119 618.77559 693.24747 618.77527 693.26758 618.77734 L 696.26953 617.00977 C 696.20141 616.31257 696.09035 615.35293 695.88672 613.81641 C 695.58116 611.51085 695.34635 610.03733 695.17969 609.39844 C 693.7908 608.67621 692.09571 608.13455 690.0957 607.77344 C 688.0957 607.41233 685.77561 607.23242 683.13672 607.23242 z M 649.7207 607.44141 C 646.27626 607.44141 643.35959 607.82964 640.9707 608.60742 C 639.2207 609.21853 637.33247 610.28863 635.30469 611.81641 C 633.30469 613.31641 631.80469 614.87131 630.80469 616.48242 C 630.13802 617.62131 629.80469 618.98307 629.80469 620.56641 C 629.80469 621.17752 629.99783 621.64909 630.38672 621.98242 C 631.27561 621.98242 632.4707 621.62066 633.9707 620.89844 C 634.35959 620.70399 635.09635 620.39909 636.17969 619.98242 C 637.2908 619.53798 638.05404 619.05122 638.4707 618.52344 C 638.63737 618.32899 638.81727 617.62066 639.01172 616.39844 C 639.2895 614.70399 639.62283 613.55252 640.01172 612.94141 C 640.5395 612.10807 641.38802 611.42622 642.55469 610.89844 C 643.72136 610.37066 644.99783 610.10742 646.38672 610.10742 C 647.77561 610.10742 648.74913 610.52409 649.30469 611.35742 C 650.22136 612.71853 650.67969 615.27343 650.67969 619.02344 C 650.67969 620.10677 650.63802 621.17687 650.55469 622.23242 L 640.17969 626.39844 C 638.37413 627.17622 637.31727 627.64974 637.01172 627.81641 C 635.01172 628.92752 633.55339 629.95399 632.63672 630.89844 C 631.74783 631.81511 631.09635 632.74696 630.67969 633.69141 C 630.2908 634.63585 630.0957 635.56575 630.0957 636.48242 C 630.0957 638.45465 630.77561 640.05121 632.13672 641.27344 C 633.49783 642.46788 635.62283 643.06641 638.51172 643.06641 C 641.65061 643.06641 644.30403 642.53798 646.4707 641.48242 C 648.63737 640.39909 650.31727 638.80252 651.51172 636.69141 C 652.48394 638.96919 653.55404 640.56575 654.7207 641.48242 C 655.91515 642.37131 657.33181 642.81641 658.9707 642.81641 C 660.58182 642.81641 661.92838 642.35807 663.01172 641.44141 C 664.09505 640.49696 664.97005 638.78863 665.63672 636.31641 L 665.5957 636.10742 C 665.54015 635.82964 665.38672 635.59288 665.13672 635.39844 L 664.17969 634.77344 L 663.42969 635.06641 L 662.17969 637.02344 C 661.95747 637.1901 661.69227 637.27344 661.38672 637.27344 C 660.88672 637.27344 660.47005 637.0651 660.13672 636.64844 C 659.83116 636.20399 659.67969 635.39909 659.67969 634.23242 L 659.67969 632.94141 L 659.5957 627.89844 L 659.7207 621.02344 C 659.7207 616.82899 659.40061 613.92752 658.76172 612.31641 C 658.15061 610.70529 657.0408 609.49696 655.42969 608.69141 C 653.84635 607.85807 651.94293 607.44141 649.7207 607.44141 z M 616.16992 618.2793 L 612.07031 618.62109 C 612.12744 619.75572 612.1782 621.03719 612.2207 622.48242 L 612.38672 627.31641 L 612.38672 628.35742 C 608.56449 624.56647 606.43013 622.43306 603.33203 619.35352 L 588.60156 620.58594 L 589.7207 621.73242 L 596.80469 628.81641 L 601.02539 633.00195 L 616.57812 636.30078 L 616.51172 635.14844 L 616.51172 630.02344 C 616.51172 629.60677 616.49848 628.8852 616.4707 627.85742 L 616.16992 618.2793 z M 568.85352 622.23828 L 564.61523 622.59375 L 564.59766 625.27539 L 569 626.20898 L 568.8457 622.85742 L 568.85352 622.23828 z M 650.51172 625.10742 C 650.62283 626.32965 650.67969 627.55121 650.67969 628.77344 C 650.67969 632.079 650.55469 634.09418 650.30469 634.81641 C 650.05469 635.51085 649.19293 636.45399 647.7207 637.64844 C 646.63737 638.53733 645.31728 638.98242 643.76172 638.98242 C 642.81727 638.98242 641.98394 638.59418 641.26172 637.81641 C 640.5395 637.03863 640.17969 636.05187 640.17969 634.85742 C 640.17969 633.52409 640.45616 632.39909 641.01172 631.48242 C 641.7895 630.23242 643.16449 628.99566 645.13672 627.77344 C 647.13672 626.52344 648.92838 625.6352 650.51172 625.10742 z M 672.0957 630.69141 C 671.70681 630.69141 671.09505 630.77474 670.26172 630.94141 C 670.2895 631.60807 670.52626 633.63455 670.9707 637.02344 C 671.2207 639.10677 671.40061 640.27344 671.51172 640.52344 C 671.65061 640.74566 671.87413 640.94076 672.17969 641.10742 C 673.81858 641.80187 674.83181 642.2053 675.2207 642.31641 C 676.80404 642.73307 678.17904 643.00955 679.3457 643.14844 C 681.92904 643.42622 683.52561 643.56641 684.13672 643.56641 C 685.91387 643.56641 687.52571 643.40991 688.97656 643.09961 L 685.66992 640.54297 C 685.48123 640.55678 685.2906 640.56641 685.0957 640.56641 C 684.06792 640.56641 683.09636 640.39974 682.17969 640.06641 C 680.81858 639.59418 679.81858 639.13585 679.17969 638.69141 C 678.23524 637.99696 677.27691 637.0803 676.30469 635.94141 C 675.83246 635.38585 674.8457 633.78733 673.3457 631.14844 L 672.9707 630.73242 C 672.58181 630.70464 672.29015 630.69141 672.0957 630.69141 z "
         transform="scale(0.26458333)" />
    </g>
  </g>
</svg>
